<?xml version="1.0" standalone="no"?>
<!DOCTYPE svg PUBLIC "-//W3C//DTD SVG 1.1//EN" "http://www.w3.org/Graphics/SVG/1.1/DTD/svg11.dtd" >
<svg xmlns="http://www.w3.org/2000/svg">
<metadata>
Created by FontForge 20120731 at Thu Jul  7 11:19:31 2016
 By admin
</metadata>
<defs>
<font id="iconfont" horiz-adv-x="1024" >
  <font-face 
    font-family="iconfont"
    font-weight="500"
    font-stretch="normal"
    units-per-em="1024"
    panose-1="2 0 6 3 0 0 0 0 0 0"
    ascent="896"
    descent="-128"
    x-height="792"
    bbox="0 -128 1139 896"
    underline-thickness="50"
    underline-position="-100"
    unicode-range="U+0078-E651"
  />
<missing-glyph horiz-adv-x="374" 
d="M34 0v682h272v-682h-272zM68 34h204v614h-204v-614z" />
    <glyph glyph-name=".notdef" horiz-adv-x="374" 
d="M34 0v682h272v-682h-272zM68 34h204v614h-204v-614z" />
    <glyph glyph-name=".null" horiz-adv-x="0" 
 />
    <glyph glyph-name="nonmarkingreturn" horiz-adv-x="341" 
 />
    <glyph glyph-name="x" unicode="x" horiz-adv-x="1001" 
d="M281 543q-27 -1 -53 -1h-83q-18 0 -36.5 -6t-32.5 -18.5t-23 -32t-9 -45.5v-76h912v41q0 16 -0.5 30t-0.5 18q0 13 -5 29t-17 29.5t-31.5 22.5t-49.5 9h-133v-97h-438v97zM955 310v-52q0 -23 0.5 -52t0.5 -58t-10.5 -47.5t-26 -30t-33 -16t-31.5 -4.5q-14 -1 -29.5 -0.5
t-29.5 0.5h-32l-45 128h-439l-44 -128h-29h-34q-20 0 -45 1q-25 0 -41 9.5t-25.5 23t-13.5 29.5t-4 30v167h911zM163 247q-12 0 -21 -8.5t-9 -21.5t9 -21.5t21 -8.5q13 0 22 8.5t9 21.5t-9 21.5t-22 8.5zM316 123q-8 -26 -14 -48q-5 -19 -10.5 -37t-7.5 -25t-3 -15t1 -14.5
t9.5 -10.5t21.5 -4h37h67h81h80h64h36q23 0 34 12t2 38q-5 13 -9.5 30.5t-9.5 34.5q-5 19 -11 39h-368zM336 498v228q0 11 2.5 23t10 21.5t20.5 15.5t34 6h188q31 0 51.5 -14.5t20.5 -52.5v-227h-327z" />
    <glyph glyph-name="uniE61E" unicode="&#xe61e;" 
d="M920 654q-1 18 -14 30t-30 12l-273 -2q-21 0 -34 -16l-380 -428q-13 -14 -12.5 -33.5t14.5 -32.5l296 -280q13 -13 32 -11.5t32 15.5l372 419q2 4 6 10t10 23t5 31zM714 467.5q-18 16.5 -18.5 42t16.5 44.5t41.5 20.5t42.5 -15t18.5 -42t-16.5 -44.5t-41.5 -20.5
t-42.5 15zM155 319l379 428q14 16 34 16l252 2l-8 69q-2 17 -14.5 29t-30.5 13h-270q-20 0 -34 -15l-372 -419q-12 -14 -11.5 -33.5t14.5 -32.5l60 -57h1z" />
    <glyph glyph-name="uniE61F" unicode="&#xe61f;" 
d="M853 653q0 15 -12 23l-312 206q-17 13 -34 0l-312 -205q-12 -9 -12 -24v-730q0 -12 8.5 -20.5t20.5 -8.5h624q12 0 20.5 8.5t8.5 20.5v730zM457.5 696.5q22.5 22.5 54.5 22.5t54.5 -22.5t22.5 -54.5t-22.5 -54.5t-54.5 -22.5t-54.5 22.5t-22.5 54.5t22.5 54.5zM648 299
v-59h-99v-32h99v-58h-99v-72h-75v72h-98v58h98v32h-98v59h69l-82 167h81l53 -113q10 -21 15 -37q4 17 14 37l54 113h81l-83 -167h70z" />
    <glyph glyph-name="uniE621" unicode="&#xe621;" 
d="M189 505q0 122 86.5 209t208.5 87t208.5 -87t86.5 -209q0 -63 -28 -124l52 -42q41 78 41 166q0 98 -48 181t-131 131t-181 48t-181 -48t-131 -131t-48 -181q0 -95 46.5 -176.5t126 -130.5t174.5 -52l-10 67q-115 9 -193.5 93t-78.5 199zM767 118l156 57l-299 201
q51 56 51 130q0 79 -56 135t-135 56t-135.5 -56t-56.5 -135.5t56.5 -135.5t135.5 -56q20 0 40 4l15 -350l132 92q2 4 6.5 3.5t6.5 -3.5l92 -158l77 45l-92 159q-2 4 0 8t6 4z" />
    <glyph glyph-name="uniE622" unicode="&#xe622;" 
d="M962 400l-895 401q-10 3 -18.5 -3t-7.5 -17l35 -331l588 -68l-588 -67l-35 -331q-1 -10 8 -17q5 -4 11 -4q4 0 7 2l895 400q13 5 13 18t-13 17zM962 400z" />
    <glyph glyph-name="uniE623" unicode="&#xe623;" 
d="M953 194h-64q-1 14 0.5 36t-3.5 58t-13.5 71.5t-29 76.5t-49.5 73q-31 34 -73 59v168q0 25 -17.5 42.5t-41.5 17.5h-297q-25 0 -42.5 -17.5t-17.5 -42.5v-166q-43 -25 -75 -61q-29 -32 -49.5 -73t-29 -76.5t-13.5 -71.5t-3.5 -58t0.5 -36h-64q-17 0 -29 -12t-12 -29v-140
q0 -17 12 -29t29 -12h186q17 0 29 12t12 29v140q0 17 -12 29t-29 12h-62q-1 10 -1.5 25.5t2.5 49t10.5 65t25 69.5t43.5 67q20 23 52 43q18 -14 38 -14h117v-305h-64q-17 0 -29 -12t-12 -29v-140q0 -17 12 -29t29 -12h186q17 0 29 12t12 29v140q0 17 -12 29t-29 12h-63v305
h121q19 0 36 13q31 -19 51 -42q26 -29 43.5 -67t25 -69t10.5 -65.5t2.5 -49t-1.5 -25.5h-62q-17 0 -29 -12t-12 -29v-140q0 -17 12 -29t29 -12h186q17 0 29 12t12 29v140q0 17 -12 29t-29 12z" />
    <glyph glyph-name="uniE624" unicode="&#xe624;" 
d="M801 541q-38 96 -122 156t-188 60q-133 0 -229.5 -94.5t-104.5 -231.5q-66 -7 -111.5 -59.5t-45.5 -122.5q0 -76 52 -130t126 -54h258v162h-129q-10 9 -10 22.5t10 23.5l182 200q10 9 23 9t23 -9l182 -200q10 -10 10 -23.5t-10 -22.5h-129v-162h206q95 0 162.5 69.5
t67.5 168.5q0 97 -65 166t-158 72z" />
    <glyph glyph-name="uniE625" unicode="&#xe625;" 
d="M869 561l-158 158q-9 9 -9 22t9 21l70 70q9 9 22 9t22 -9l157 -157q9 -9 9 -22t-9 -22l-70 -70q-9 -9 -21.5 -9t-21.5 9zM385 77l-158 158q-9 9 -9 21.5t9 21.5l396 396q8 9 21 9t22 -9l158 -158q9 -9 9 -21.5t-9 -21.5l-396 -396q-9 -9 -21.5 -9t-21.5 9zM152 184
l-72 -239q-3 -9 3 -15t15 -3l239 72q9 3 12 12t-4 15l-166 166q-6 7 -15 4t-12 -12z" />
    <glyph glyph-name="uniE626" unicode="&#xe626;" 
d="M132 699q0 20 14 34t34 14h238v47q0 20 14 33.5t34 13.5h95q20 0 34 -13.5t14 -33.5v-47h238q20 0 34 -14t14 -34v-47h-763v47zM847 557v-94v-490q0 -19 -14 -33t-33 -14h-573q-19 0 -33 14t-14 33v490v94v48h667v-48zM370 463q0 19 -14 33t-33.5 14t-33.5 -14t-14 -33
v-395q0 -20 14 -33.5t33.5 -13.5t33.5 13.5t14 33.5v395zM561 463q0 19 -14 33t-33.5 14t-33.5 -14t-14 -33v-395q0 -20 14 -33.5t33.5 -13.5t33.5 13.5t14 33.5v395zM752 463q0 19 -14 33t-34 14t-34 -14t-14 -33v-395q0 -20 14 -33.5t34 -13.5t34 13.5t14 33.5v395z
M752 463z" />
    <glyph glyph-name="uniE627" unicode="&#xe627;" 
d="M888 866h-545q-44 0 -75 -31t-31 -74v-546q0 -44 31 -75t75 -31h545q44 0 75 31t31 75v546q0 43 -31 74t-75 31zM831 434h-162v-162h-107v162h-162v107h162v162h107v-162h163v-107h-1zM831 434zM716 33q0 -25 -17.5 -42.5t-42.5 -17.5h-496q-25 0 -42.5 17.5t-17.5 42.5
v496q0 25 17.5 42.5t42.5 17.5h8v70h-32q-44 0 -75 -31t-31 -75v-546q0 -43 31 -74t75 -31h545q44 0 75 31t31 74v33h-71v-7zM716 33z" />
    <glyph glyph-name="uniE628" unicode="&#xe628;" 
d="M73 820v-748q0 -52 37 -88.5t88 -36.5h749v873h-874zM760 9h-250v125h-125v-125h-124v250h499v-250zM822 446q0 -23 -19.5 -42.5t-42.5 -19.5h-499q-24 0 -43.5 19.5t-19.5 42.5v312h624v-312zM822 446z" />
    <glyph glyph-name="uniE62B" unicode="&#xe62b;" 
d="M921 638l-211 212q-13 12 -31 12h-527q-19 0 -32.5 -13t-13.5 -32v-848q0 -19 13.5 -32.5t32.5 -13.5h738q19 0 32.5 13.5t13.5 32.5v635q0 20 -15 34zM280 509h241v-78h-241v78zM762 110h-482v78h482v-78zM762 270h-482v79h482v-79zM859 566h-204q-5 0 -8 3t-3 8v204
q0 7 6.5 9.5t11.5 -2.5l204 -204q5 -5 2.5 -11.5t-9.5 -6.5z" />
    <glyph glyph-name="uniE62C" unicode="&#xe62c;" 
d="M440 436h-318q-13 0 -22.5 9.5t-9.5 22.5v317q0 13 9.5 22.5t22.5 9.5h318q13 0 22 -9.5t9 -22.5v-317q0 -13 -9 -22.5t-22 -9.5zM904 436h-318q-13 0 -22 9.5t-9 22.5v317q0 13 9 22.5t22 9.5h318q13 0 22.5 -9.5t9.5 -22.5v-317q0 -13 -9.5 -22.5t-22.5 -9.5zM440 -23
h-318q-13 0 -22.5 9.5t-9.5 22.5v317q0 14 9.5 23t22.5 9h318q13 0 22 -9t9 -23v-317q0 -13 -9 -22.5t-22 -9.5zM986 -28l-95 95q40 54 35.5 123t-53.5 119q-55 54 -132.5 54t-132 -54.5t-54.5 -132t54.5 -132t132.5 -54.5q60 0 110 36l95 -95q8 -8 17 0l23 24q8 8 0 17z
M651 87q-37 37 -37 89.5t37 89.5t89.5 37t89.5 -37t37 -89.5t-37 -89.5t-89.5 -37t-89.5 37z" />
    <glyph glyph-name="uniE62D" unicode="&#xe62d;" 
d="M852.5 724.5q-69.5 69.5 -159.5 105.5t-181 36t-181 -36t-159.5 -105.5t-105.5 -159.5t-36 -181t36 -181t105 -160q93 -92 217 -125t248 0t217 125q69 70 105 160t36 181t-36 181t-105.5 159.5zM764 209q9 -9 9 -21t-9 -20l-36 -36q-8 -9 -20 -9t-21 9l-175 175
l-175 -175q-9 -9 -21 -9t-20 9l-36 36q-9 8 -9 20t9 21l175 175l-175 175q-9 9 -9 21t9 20l36 36q8 9 20 9t21 -9l175 -175l175 175q9 9 21 9t20 -9l36 -36q9 -8 9 -20t-9 -21l-175 -175z" />
    <glyph glyph-name="uniE62E" unicode="&#xe62e;" 
d="M22 383l384 -332q10 -9 22 -3.5t12 18.5v194q0 15 15 20q18 5 38.5 9.5t55.5 9.5t68 6t73 -2.5t73.5 -14t66.5 -32.5t56.5 -53.5t38 -79.5t14.5 -109q0 -19 18 -21.5t23 15.5q15 50 22.5 98t5.5 106t-18 107t-55.5 96t-99.5 78.5t-157 48t-222 11.5q-10 -1 -16.5 5.5
t-5.5 15.5l5 155q0 14 -12 20t-23 -3l-382 -331q-7 -7 -7 -16.5t7 -15.5z" />
    <glyph glyph-name="uniE62F" unicode="&#xe62f;" 
d="M912 638l-211 213q-13 12 -31 12h-527q-19 0 -32.5 -13.5t-13.5 -32.5v-848q0 -19 13.5 -32.5t32.5 -13.5h289v201h-138q-10 10 -10 24t10 24l195 215q10 10 24.5 10t24.5 -10l196 -215q10 -10 10 -24t-10 -24h-138v-201h285q19 0 32.5 13.5t13.5 32.5v636q0 20 -15 33z
M850 567h-204q-5 0 -8 3t-3 7v205q0 6 6.5 9t11.5 -2l204 -205q5 -5 2.5 -11t-9.5 -6z" />
    <glyph glyph-name="uniE630" unicode="&#xe630;" 
d="M743 822q11 10 26.5 10t25.5 -10l194 -210q11 -10 11 -24.5t-11 -24.5l-132 -3v-373q0 -13 -10.5 -23t-25.5 -10h-104q-15 0 -25.5 10t-10.5 23v373l-132 3q-10 10 -10 24.5t10 24.5zM73 424h443v38q-1 24 -1 47v27v4h-442q-15 0 -26 -10.5t-11 -26.5v-42q0 -15 11 -26
t26 -11zM73 180h260h183v38q-1 24 -1 47v27v4h-442q-15 0 -26 -11t-11 -26v-42q0 -15 11 -26t26 -11zM960 52h-887q-15 0 -26 -11t-11 -26v-42q0 -15 11 -26t26 -11h887q15 0 26 11t11 26v42q0 15 -11 26t-26 11zM73 785h443l-13 -18q-21 -28 -37 -50l-36 -49h-357
q-15 0 -26 11t-11 27v41q0 16 11 27t26 11z" />
    <glyph glyph-name="uniE631" unicode="&#xe631;" 
d="M737 141q11 -11 26.5 -11t26.5 11l193 210q11 10 11 24t-11 25l-132 3v372q0 14 -10.5 23.5t-24.5 9.5h-105q-15 0 -25.5 -9.5t-10.5 -23.5v-372l-131 -3q-11 -11 -11 -25t11 -24zM67 692h443v38q-1 32 -1 47v27v4h-442q-15 0 -26 -10.5t-11 -26.5v-42q0 -15 11 -26
t26 -11zM67 448h260h183v38q-1 39 -1 47v27v4h-442q-15 0 -26 -10.5t-11 -26.5v-42q0 -15 11 -26t26 -11zM954 76h-887q-15 0 -26 -11t-11 -26v-42q0 -16 11 -26.5t26 -10.5h887q15 0 26 10.5t11 26.5v42q0 15 -11 26t-26 11zM67 204h443l-13 18q-25 34 -36 49l-37 49h-357
q-15 0 -26 -11t-11 -26v-42q0 -15 11 -26t26 -11z" />
    <glyph glyph-name="uniE632" unicode="&#xe632;" 
d="M980 -9l-292 293q53 69 68 154t-11 168t-88 146q-51 51 -116.5 78t-137.5 27t-137.5 -27t-116.5 -78q-68 -69 -92.5 -161t0 -184.5t92.5 -161.5q51 -51 116.5 -78t137.5 -27q128 0 227 81l290 -290q12 -13 30 -13t30.5 12.5t12.5 30.5t-13 30zM403 230
q-111 0 -189.5 78.5t-78.5 190t78.5 190t189.5 78.5t189.5 -78.5t78.5 -190t-78.5 -190t-189.5 -78.5z" />
    <glyph glyph-name="uniE633" unicode="&#xe633;" 
d="M401 444h222v-59h-222v59zM401 572h222v-59h-222v59zM475 244q17 -13 37 -12q19 -1 36 12l201 156l216 168l-403 285q-21 21 -50.5 21t-50.5 -21l-403 -284l216 -169zM294 652q0 12 8 20t19 8h381q12 0 19.5 -8t7.5 -20v-217l-184 -143q-15 -12 -33 -11q-18 -1 -34 11
l-184 143v217zM986 510l-237 -193l-165 -135l-5 -2q-3 -2 -4 -3q-33 -21 -63.5 -21t-62.5 21q-1 1 -4.5 2.5t-4.5 2.5l-166 135l-235 192q0 -1 -1 -5t-1 -6v-529q0 -24 17.5 -41.5t41.5 -17.5h831q25 0 42 17.5t17 41.5v522q1 9 0 19z" />
    <glyph glyph-name="uniE634" unicode="&#xe634;" 
d="M512 383q20 -1 37 12l424 330q-17 16 -39 16h-844q-22 0 -39 -16l424 -330q17 -13 37 -12zM30 654v-542l332 271zM662 383l332 -271v542zM39 82q-5 9 -6 18q1 -10 6 -18zM616 319l-31 -25q-34 -27 -73 -27t-73 27l-31 25l-357 -278q-7 7 -12 14q18 -30 51 -30h844
q22 0 38 14t20 36q-4 -20 -19 -34z" />
    <glyph glyph-name="uniE635" unicode="&#xe635;" 
d="M880 672h-192v-544h192q27 0 45.5 19t18.5 45v416q0 26 -18.5 45t-45.5 19zM880 672zM336 650v-426h-64v576h64v32q0 3 -0.5 7t-4 15t-9.5 19.5t-19 15.5t-31 7h-64q-26 0 -45 -19t-19 -45v-896q0 -26 19 -45t45 -19h64q27 0 45.5 19t18.5 45v288h288v576h-288v-150z
M336 650z" />
    <glyph glyph-name="uniE637" unicode="&#xe637;" 
d="M892 395v380q0 35 -24.5 60t-59.5 25h-592q-35 0 -59.5 -25t-24.5 -60v-380l380 -147zM424 670h338v-85h-338v85zM358 417h-84v85h84v-85zM358 585h-84v85h84v-85zM424 502h338v-85h-338v85zM948 349l-427 -167q-9 -2 -18 0l-427 167q-18 4 -32 -7t-14 -29v-352
q0 -15 11 -26t26 -11h890q15 0 26 11t11 26v352q0 18 -14 29t-32 7z" />
    <glyph glyph-name="uniE639" unicode="&#xe639;" 
d="M988 588l-90 185q-16 33 -53 33h-668q-37 0 -53 -34l-88 -184q-6 -12 -6 -26v-541q0 -24 17.5 -41.5t41.5 -17.5h846q24 0 41.5 17.5t17.5 41.5v541q0 13 -6 26zM722 286l-197 -155q-8 -7 -17.5 -2.5t-9.5 15.5v88q0 7 -5 12t-12 5h-169q-7 0 -12 5t-5 11v68q0 7 5 12
t12 5h169q7 0 12 5t5 12v88q0 11 9.5 15.5t17.5 -2.5l198 -156q6 -4 6 -12.5t-7 -13.5zM882 589h-745q-7 0 -10.5 6t-0.5 13l65 131q4 7 11 7h615q8 0 12 -7l65 -131q3 -7 -1 -13t-11 -6z" />
    <glyph glyph-name="uniE63A" unicode="&#xe63a;" 
d="M849 866h-674q-40 0 -68.5 -28.5t-28.5 -67.5v-771q0 -40 28.5 -68.5t68.5 -28.5h674q40 0 68.5 28.5t28.5 68.5v771q0 39 -28.5 67.5t-68.5 28.5zM336 167h-96v97h96v-97zM336 361h-96v97h96v-97zM336 553h-96v96h96v-96zM797 167h-386v97h386v-97zM797 361h-386v97h386
v-97zM797 553h-386v96h386v-96zM797 553z" />
    <glyph glyph-name="uniE63B" unicode="&#xe63b;" 
d="M965 815q-2 21 -16.5 35.5t-35.5 13.5l-324 -1q-24 -1 -40 -19l-139 -156q76 -39 121.5 -111t45.5 -159q0 -126 -89 -215.5t-215 -89.5q-4 0 -10.5 1t-9.5 1l199 -188q16 -15 38 -13.5t38 18.5l440 496q3 5 8 12t12 27t6 37zM821 600.5q-20 -22.5 -49 -24.5t-50.5 18
t-22 50.5t19.5 53t49 24t50 -18.5t22 -50t-19 -52.5zM297 209l6 22q2 8 11 11l23 10q8 4 15 0l20 -12q14 -8 26 3l31 32q11 11 3 25l-12 22q-4 7 0 15l8 21q2 9 11 11l25 6q6 2 10.5 8t4.5 13v44q0 7 -4.5 13t-10.5 7l-27 8q-9 2 -12 10l-7 18q-4 7 0 14l14 26q8 14 -3 25
l-31 31q-12 12 -26 4l-26 -16q-8 -4 -16 0l-15 6q-8 3 -10 11l-8 30q-2 6 -7.5 10.5t-12.5 4.5h-45q-6 0 -12 -4.5t-8 -10.5l-8 -30q-2 -8 -11 -11l-14 -6q-8 -4 -16 0l-26 16q-14 8 -25 -4l-32 -31q-11 -11 -3 -25l14 -26q5 -7 1 -15l-8 -17q-3 -8 -11 -10l-27 -8
q-7 -1 -11.5 -7t-4.5 -13v-44q0 -7 4.5 -13t11.5 -8l25 -6q8 -3 11 -11l8 -21q3 -8 -1 -15l-12 -22q-8 -14 3 -25l32 -32q11 -11 25 -3l20 12q7 4 15 0l24 -10q8 -3 10 -11l6 -22q4 -16 20 -16h45q7 0 12.5 4.5t7.5 11.5zM119 418q0 56 40 95.5t96 39.5t95.5 -39.5
t39.5 -95.5t-39.5 -95.5t-95.5 -39.5t-96 39.5t-40 95.5z" />
    <glyph glyph-name="uniE63C" unicode="&#xe63c;" 
d="M343 653v10q0 43 30 73t72 30h136q42 0 72 -30t30 -73v-10h72q1 4 1 10q0 72 -51.5 123.5t-123.5 51.5h-136q-72 0 -123.5 -51.5t-51.5 -123.5q0 -4 1 -10h72zM963 585q-32 32 -75 32h-752q-43 0 -75 -32q-31 -31 -31 -75v-457q0 -43 31 -74v-1q32 -31 75 -31h752
q44 0 75 31v1q31 31 31 74v457q0 44 -31 75zM637 235q15 0 25 -10.5t10 -24.5t-10 -24.5t-25 -10.5h-89v-61q0 -15 -10.5 -25t-24.5 -10t-24.5 10t-10.5 25v61h-89q-15 0 -25 10.5t-10 24.5t10 24.5t25 10.5h89v46h-89q-15 0 -25 10t-10 24.5t10 25t25 10.5h75l-81 81
q-10 10 -10 24.5t10 24.5t24.5 10t24.5 -10l81 -81l81 81q10 10 24.5 10t24.5 -10t10 -24.5t-10 -24.5l-81 -81h75q15 0 25 -10.5t10 -25t-10 -24.5t-25 -10h-89v-46h89z" />
    <glyph glyph-name="uniE63D" unicode="&#xe63d;" 
d="M819 312v417q0 48 -34 82.5t-83 34.5h-556q-48 0 -82 -34.5t-34 -82.5v-690q0 -48 34 -82t82 -34h727q1 0 4 -0.5t5 -0.5q46 0 78.5 33t32.5 79v278h-174zM187 645h343q22 0 38 -15.5t16 -38t-16 -38.5t-38 -16h-343q-22 0 -38 16t-16 38.5t16 38t38 15.5zM671 112h-489
q-21 0 -35.5 14.5t-14.5 35.5t14.5 35.5t35.5 14.5h489q21 0 35.5 -14.5t14.5 -35.5t-14.5 -35.5t-35.5 -14.5zM671 320h-489q-21 0 -35.5 14.5t-14.5 35t14.5 35t35.5 14.5h489q21 0 35.5 -14.5t14.5 -35t-14.5 -35t-35.5 -14.5zM935 34q0 -22 -15.5 -37.5t-37.5 -15.5
t-37.5 15.5t-15.5 37.5v219h106v-219z" />
    <glyph glyph-name="uniE63E" unicode="&#xe63e;" 
d="M879 747h-622q-15 0 -25.5 -10.5t-10.5 -24.5v-82h-98q-14 0 -24.5 -10.5t-10.5 -25.5v-435q0 -15 10.5 -25.5t24.5 -10.5h245l77 -106l77 106h224q14 0 24.5 10.5t10.5 25.5v435q0 15 -10.5 25.5t-24.5 10.5h-495v82q0 5 6 5h622q5 0 5 -5v-436q0 -5 -5 -5h-98v-31h98
q15 0 25.5 10.5t10.5 25.5v436q0 14 -10.5 24.5t-25.5 10.5zM751 594v-435q0 -5 -5 -5h-239l-62 -85l-62 85h-260q-2 0 -3.5 1.5t-1.5 3.5v435q0 5 5 5h623q2 0 3.5 -1.5t1.5 -3.5zM537 492h-35l-58 -101l-58 101h-36l65 -112h-53v-30h67v-21h-67v-30h67v-49h30v49h67v30
h-67v21h67v30h-53z" />
    <glyph glyph-name="uniE63F" unicode="&#xe63f;" 
d="M833 159l-263 263l36 35q10 -9 23 -9q15 0 25 11l58 58q11 11 11 25.5t-11 24.5l-145 146q-10 10 -25 10t-25 -10l-59 -59q-10 -10 -10 -24.5t10 -25.5l6 -6l-168 -168l-6 6q-10 10 -25 10t-25 -10l-59 -59q-10 -10 -10 -24.5t10 -25.5l146 -145q10 -11 25 -11t25 11
l58 58q11 11 11 25t-9 24l35 35l263 -263q11 -10 26 -10t25 10l47 47q11 11 11 25.5t-11 25.5zM480 632l59 59q1 1 3 1t3 -1l146 -145q1 -2 1 -4t-1 -3l-59 -59q-3 -3 -6 0l-140 140l-6 6q-3 3 0 6zM414 262l-59 -59q-3 -3 -6 0l-146 146q-3 3 0 7l59 58q1 1 3 1t3 -1
l75 -75l71 -70q1 -2 1 -4t-1 -3zM415 311l-97 97l168 169l47 -48l51 -50zM811 130l-47 -47q-3 -4 -7 0l-263 263l54 54l263 -263q4 -4 0 -7zM175 73h328v-31h-328v31z" />
    <glyph glyph-name="uniE640" unicode="&#xe640;" 
d="M815 591h-189v50q0 15 -10.5 25.5t-24.5 10.5h-191q-15 0 -25.5 -10.5t-10.5 -25.5v-50h-188q-15 0 -25.5 -10.5t-10.5 -24.5v-441q0 -14 10.5 -24.5t25.5 -10.5h639q14 0 24.5 10.5t10.5 24.5v441q0 14 -10.5 24.5t-24.5 10.5zM395 641q0 5 5 5h191q5 0 5 -5v-50h-201
v50zM176 561h639q5 0 5 -5v-153h-194v31q0 15 -10.5 26t-26.5 11h-188q-15 0 -26 -11t-11 -26v-31h-193v153q0 5 5 5zM596 434v-93q0 -6 -7 -6h-188q-6 0 -6 6v93q0 6 6 6h188q7 0 7 -6zM815 111h-639q-5 0 -5 4v257h193v-31q0 -15 11 -26t26 -11h188q16 0 26.5 11t10.5 26
v31h194v-257q0 -4 -5 -4z" />
    <glyph glyph-name="uniE641" unicode="&#xe641;" 
d="M370 276l-87 438h-110v-30h85l87 -438h401v30h-376zM758 348h-421v31h397l45 192h-487v31h526zM396.5 58q-32.5 0 -55 22.5t-22.5 55t22.5 55.5t55 23t55.5 -23t23 -55.5t-23 -55t-55.5 -22.5zM396.5 183q-19.5 0 -33.5 -14t-14 -33.5t14 -33.5t33.5 -14t33.5 14t14 33.5
t-14 33.5t-33.5 14zM710 58q-32 0 -55 22.5t-23 55t23 55.5t55 23t55 -23t23 -55.5t-23 -55t-55 -22.5zM709.5 183q-19.5 0 -33.5 -14t-14 -33.5t14 -33.5t33.5 -14t33.5 14t14 33.5t-14 33.5t-33.5 14z" />
    <glyph glyph-name="uniE642" unicode="&#xe642;" 
d="M400 692h-217q-14 0 -24 -9.5t-10 -23.5v-215q0 -14 10 -24t24 -10h217q14 0 24 10t10 24v215q0 14 -10 23.5t-24 9.5zM403 444q0 -1 -1 -2t-2 -1h-217q-3 0 -3 3v215q0 1 1 2t2 1h217q3 0 3 -3v-215zM400 328h-217q-14 0 -24 -10t-10 -24v-214q0 -14 10 -24t24 -10h217
q14 0 24 10t10 24v214q0 14 -10 24t-24 10zM403 80q0 -4 -3 -4h-217q-3 0 -3 4v214q0 2 1 2.5t2 0.5h217q3 0 3 -3v-214zM767 328h-217q-14 0 -24 -10t-10 -24v-214q0 -14 10 -24t24 -10h217q14 0 24 10t10 24v214q0 14 -10 24t-24 10zM770 80q0 -4 -3 -4h-217q-3 0 -3 4
v214q0 2 0.5 2.5t2.5 0.5h217q3 0 3 -3v-214zM835 576l-152 152q-10 10 -24 10t-24 -10l-153 -154q-10 -10 -10 -24t10 -23l151 -152q10 -10 24 -10t24 10l154 153q10 10 10 24t-10 24zM813 550l-153 -154q-3 -2 -5 0l-152 152q-2 2 0 5l154 153q2 2 4 0l152 -152q2 -2 0 -4
z" />
    <glyph glyph-name="uniE643" unicode="&#xe643;" 
d="M841 416q27 15 43 42t16 59q0 48 -34 82t-82 34t-82 -34t-34 -82q0 -32 16 -59t43 -42q-29 -8 -56 -24q-38 28 -84 40q32 19 51 51t19 70q0 57 -40.5 97.5t-97.5 40.5t-97.5 -40.5t-40.5 -97.5q0 -38 19 -70t51 -51q-46 -12 -85 -40q-27 16 -57 24q27 15 43 42t16 59
q0 48 -34 82t-82 34t-82 -34t-34 -82q0 -32 16 -59t43 -42q-71 -19 -116.5 -77.5t-45.5 -134.5q0 -43 65 -67t154 -24q25 0 52 3q74 -44 214.5 -44t215.5 44q26 -3 50 -3q89 0 154.5 24t65.5 67q0 76 -46 134.5t-117 77.5zM699 517.5q0 35.5 25 60.5t60 25t60.5 -25
t25.5 -60.5t-25.5 -60.5t-60.5 -25t-60 25t-25 60.5zM411 552.5q0 44.5 31.5 76t76 31.5t76 -31.5t31.5 -76t-31.5 -76t-76 -31.5t-76 31.5t-31.5 76zM167 517.5q0 35.5 25 60.5t60.5 25t60.5 -25t25 -60.5t-25 -60.5t-60.5 -25t-60.5 25t-25 60.5zM64 204q0 78 55 133.5
t133 55.5q47 0 88 -22q-82 -78 -82 -190q0 -19 12 -36q-16 -1 -18 -1q-79 0 -133.5 19t-54.5 41zM288 181q0 95 68 162.5t163 67.5t162.5 -67.5t67.5 -162.5q0 -32 -68 -55t-162 -23t-162.5 23t-68.5 55zM784 144l-16 1q12 17 12 36q0 113 -83 190q41 22 87 22
q78 0 133.5 -55.5t55.5 -133.5q0 -22 -54.5 -41t-134.5 -19z" />
    <glyph glyph-name="uniE644" unicode="&#xe644;" 
d="M623 644q-78 78 -189 78t-189.5 -78.5t-78.5 -189.5t78 -189q69 -69 166.5 -77.5t174.5 46.5l179 -179q14 -14 34 -14t34.5 14t14.5 34.5t-14 34.5l-179 178q55 78 46.5 175.5t-77.5 166.5zM811 102q5 -5 5 -12.5t-5 -12.5t-12.5 -5t-13.5 5l-175 176q10 9 13 12t12 13z
M601.5 286.5q-69.5 -69.5 -168 -69.5t-167.5 69.5t-69 167.5t69 167.5t167.5 69.5t168 -69.5t69.5 -167.5t-69.5 -167.5z" />
    <glyph glyph-name="uniE645" unicode="&#xe645;" 
d="M697 544q0 6 -4.5 11t-10.5 5h-420q-6 0 -10.5 -5t-4.5 -11t4.5 -10.5t10.5 -4.5h420q6 0 10.5 4.5t4.5 10.5zM261 426q-6 0 -10 -4t-4 -10v-2q0 -6 4 -10t10 -4h299q6 0 10 4t4 10v2q0 6 -4 10t-10 4h-299zM480 295h-221q-5 0 -8.5 -3.5t-3.5 -8.5v-6q0 -5 3.5 -8.5
t8.5 -3.5h221q5 0 8.5 3.5t3.5 8.5v6q0 5 -3.5 8.5t-8.5 3.5zM169 112v541q0 19 13.5 32.5t32.5 13.5h541q19 0 32.5 -13.5t13.5 -32.5v-165h31v165q0 32 -22.5 54.5t-54.5 22.5h-541q-32 0 -54.5 -22.5t-22.5 -54.5v-541q0 -32 22.5 -54.5t54.5 -22.5h269v30h-269
q-19 0 -32.5 14t-13.5 33zM882 385l-17 17q-11 11 -27 12t-26 -9l-210 -210q-3 -3 -16.5 -19.5t-29.5 -41.5t-16 -37q0 -9 6 -14l17 -18q6 -5 14 -5q12 0 37.5 16t41.5 29t19 16l210 210q10 10 10 24q0 17 -13 30zM580 92l-8 8q6 15 35 53l27 -26q-38 -29 -54 -35zM863 353
l-206 -206l-30 30l206 206q1 1 3 1q4 0 7 -4l18 -17q3 -4 3 -8q0 -1 -1 -2z" />
    <glyph glyph-name="uniE646" unicode="&#xe646;" 
d="M407 455h-323q-13 0 -22.5 9.5t-9.5 22.5v323q0 13 9.5 22.5t22.5 9.5h323q13 0 22.5 -9.5t9.5 -22.5v-323q0 -13 -9.5 -22.5t-22.5 -9.5zM891 455h-322q-14 0 -23.5 9.5t-9.5 22.5v323q0 13 9.5 22.5t23.5 9.5h322q14 0 23.5 -9.5t9.5 -22.5v-323q0 -13 -9.5 -22.5
t-23.5 -9.5zM407 -24h-323q-13 0 -22.5 9.5t-9.5 22.5v323q0 13 9.5 22.5t22.5 9.5h323q13 0 22.5 -9.5t9.5 -22.5v-323q0 -13 -9.5 -22.5t-22.5 -9.5zM991 -43l-103 103q44 59 39 134t-59 128q-59 59 -142.5 59t-143 -59.5t-59.5 -143t59.5 -143t142.5 -59.5q65 0 119 40
l103 -103q10 -9 19 0l25 25q9 9 0 19zM628.5 82q-40.5 40 -40.5 96.5t40.5 97t97 40.5t96.5 -40.5t40 -97t-40 -96.5t-96.5 -40t-97 40z" />
    <glyph glyph-name="uniE64B" unicode="&#xe64b;" horiz-adv-x="1145" 
d="M341 773h-169q-26 0 -43 -20q-16 -18 -16 -47v-15v-1v-2v-15h228v100zM22 603q-11 -15 -11 -48v-148q0 -14 6 -19.5t20 -8.5q17 -2 32 -18q16 -16 16 -45q0 -19 -7 -32q-5 -13 -14 -21t-17 -12q-9 -4 -14 -4q-13 -2 -17.5 -9t-4.5 -21v-164q0 -35 13.5 -47.5t46.5 -10.5
q3 0 8 -0.5t13 -0.5h15q23 -1 53 -1h68v624h-157q-38 0 -49 -14zM1113 557q12 5 19 16.5t7 24.5t-7 26t-20 21q-10 4 -13 15q-4 11 -4 21q2 12 7 21q5 10 12 16q9 6 12 16q3 9 1.5 18t-8.5 15q-6 6 -14 6h-689v-98h587q17 0 28 -10t15 -23q5 -16 3 -35q-2 -20 -23 -31
q-9 -6 -15 -17q-5 -12 -5 -24t5 -25q6 -12 18 -18q11 -6 15 -15q4 -10 4 -20q-1 -11 -6 -18q-5 -9 -12 -14q-11 -7 -16 -19t-5 -25t6 -22q5 -10 15 -15q7 -3 11 -13t4 -21t-5 -21t-15 -13q-7 -4 -10.5 -13t-4.5 -20q0 -12 4 -22t14 -16q14 -8 21 -21q6 -12 0 -30
q-3 -5 -7 -8q-4 -5 -6 -7q-2 -3 -1 -5q0 -1 7 -1h66q12 0 17 8q5 7 5 17t-4 20t-9 14q-24 18 -24 37t24 34q7 5 11 16t3.5 23.5t-6.5 23.5t-15 15q-10 4 -15 14q-4 9 -4 19q0 9 4 18q5 8 15 10t16 12q5 11 6 23q1 13 -5 25q-5 13 -18 20q-12 8 -17 18q-6 11 -5 22q1 12 7 21
q5 9 19 14zM951 421q12 4 17 13q6 10 5 20q0 10 -7 21q-7 10 -18 15q-14 5 -21 15q-6 10 -5 21q2 10 8 19q7 9 18 12.5t16 13.5t4 20q0 10 -6 18q-5 8 -15 8h-647v-624h639q10 0 16 8q5 8 7 18q1 10 -3.5 20.5t-14.5 15.5q-14 8 -21 19t-6 22.5t8 21.5q9 10 23 13
q11 5 16 14t4 21q0 12 -7 22q-6 11 -18 16q-24 13 -23 34t32 36q10 5 14.5 15t4.5 21q-1 11 -7 21t-18 15q-13 5 -21 16q-6 12 -6 23q1 11 9 22t23 14zM788 196h-372v70h372v-70zM788 368h-372v69h372v-69z" />
    <glyph glyph-name="uniE64C" unicode="&#xe64c;" 
d="M878 819h-728q-29 0 -50 -21t-21 -50v-728q0 -29 21 -50t50 -21h728q29 0 50 21t21 50v728q0 29 -21 50t-50 21zM771 491q-7 -95 -75 -162q-75 -76 -182 -76t-182 76q-68 67 -75 162q-20 7 -32 24t-12 39q0 27 19.5 46.5t47 19.5t47 -19.5t19.5 -46.5q0 -37 -30 -57
q5 -77 62 -131t136 -54t136 54t62 131q-30 20 -30 57q0 27 19.5 46.5t47 19.5t47 -19.5t19.5 -46.5q0 -22 -12 -39t-32 -24z" />
    <glyph glyph-name="uniE64F" unicode="&#xe64f;" 
d="M849 835h-675q-31 0 -53.5 -22.5t-22.5 -53.5v-99h827v99q0 31 -22.5 53.5t-53.5 22.5zM98 590v-609q0 -29 19.5 -50t47.5 -24l68 117l69 -119l68 119l69 -119l69 119l69 -119l69 119l69 -119l68 119l69 -118q30 1 51.5 22.5t21.5 52.5v609h-827zM432 212h-173v91h173
v-91zM259 363v90h271v-90h-271zM582 201h-1l-76 -13l13 76l206 207l64 -64z" />
    <glyph glyph-name="uniE650" unicode="&#xe650;" 
d="M849 835h-675q-31 0 -53.5 -22.5t-22.5 -53.5v-99h827v99q0 31 -22.5 53.5t-53.5 22.5zM98 -19q0 -29 19.5 -50t47.5 -24l68 117l69 -119l68 119l69 -119l69 119l69 -119l69 119l69 -119l68 119l69 -118q30 1 51.5 22.5t21.5 52.5v609h-827v-609zM365 399l52 53l94 -95
l94 95l53 -53l-94 -94l94 -94l-53 -53l-94 94l-94 -94l-52 53l94 94z" />
    <glyph glyph-name="uniE651" unicode="&#xe651;" 
d="M849 835h-675q-31 0 -53.5 -22.5t-22.5 -53.5v-99h827v99q0 31 -22.5 53.5t-53.5 22.5zM98 -19q0 -29 19.5 -50t47.5 -24l68 117l69 -119l68 119l69 -119l69 119l69 -119l69 119l69 -119l68 119l69 -118q30 1 51.5 22.5t21.5 52.5v609h-827v-609zM514 121h-3
q-20 0 -35 13t-17 32h106q-2 -19 -17 -32t-34 -13zM390 272v84q0 37 23 65t58 36v1q0 17 12 29t29 12t29 -12t12 -29v-1q35 -8 58 -36t23 -65v-84q39 -30 41 -77h-41v-1h-244v1h-41q2 47 41 77z" />
  </font>
</defs>
</svg>
